<mxfile host="app.diagrams.net" agent="Mozilla/5.0 (Windows NT 10.0; Win64; x64) AppleWebKit/537.36 (KHTML, like Gecko) Chrome/140.0.0.0 Safari/537.36" version="28.2.1">
  <diagram name="Page-1" id="KFySeo-iHbhWyOIlwdL9">
    <mxGraphModel dx="1097" dy="1709" grid="1" gridSize="10" guides="1" tooltips="1" connect="1" arrows="1" fold="1" page="1" pageScale="1" pageWidth="850" pageHeight="1100" math="0" shadow="0">
      <root>
        <mxCell id="0" />
        <mxCell id="1" parent="0" />
        <mxCell id="qXGo0zyAmWNF7QHiX-dI-6" style="edgeStyle=none;curved=1;rounded=0;orthogonalLoop=1;jettySize=auto;html=1;exitX=0;exitY=0.75;exitDx=0;exitDy=0;fontSize=12;startSize=8;endSize=8;" parent="1" edge="1">
          <mxGeometry relative="1" as="geometry">
            <mxPoint x="400" y="1570" as="sourcePoint" />
            <mxPoint x="400" y="1570" as="targetPoint" />
          </mxGeometry>
        </mxCell>
        <mxCell id="qXGo0zyAmWNF7QHiX-dI-7" style="edgeStyle=none;curved=1;rounded=0;orthogonalLoop=1;jettySize=auto;html=1;exitX=1;exitY=0.5;exitDx=0;exitDy=0;fontSize=12;startSize=8;endSize=8;" parent="1" source="qXGo0zyAmWNF7QHiX-dI-8" target="qXGo0zyAmWNF7QHiX-dI-14" edge="1">
          <mxGeometry relative="1" as="geometry" />
        </mxCell>
        <mxCell id="qXGo0zyAmWNF7QHiX-dI-8" value="Web Server Ubutu (https://interdata.vn/)" style="rounded=1;whiteSpace=wrap;html=1;" parent="1" vertex="1">
          <mxGeometry x="350" y="820" width="180" height="80" as="geometry" />
        </mxCell>
        <mxCell id="qXGo0zyAmWNF7QHiX-dI-9" value="IP Address: 103.20.96.168&lt;br&gt;User: root&lt;br&gt;Password: Minhthcs@512006&lt;br&gt;Port ssh: 22" style="shape=mxgraph.basic.oval_callout;align=center;labelPosition=center;verticalLabelPosition=middle;verticalAlign=middle;labelBackgroundColor=none;labelBorderColor=none;textShadow=0;whiteSpace=wrap;fontFamily=Helvetica;html=1;fontSize=13;horizontal=1;flipH=1;" parent="1" vertex="1">
          <mxGeometry x="160" y="640" width="220" height="180" as="geometry" />
        </mxCell>
        <mxCell id="qXGo0zyAmWNF7QHiX-dI-10" value="apt update &amp;amp;&amp;amp; apt upgrade -y&lt;div&gt;&lt;br&gt;&lt;/div&gt;" style="whiteSpace=wrap;html=1;rounded=1;glass=0;shadow=0;" parent="1" vertex="1">
          <mxGeometry x="350" y="980" width="180" height="80" as="geometry" />
        </mxCell>
        <mxCell id="qXGo0zyAmWNF7QHiX-dI-11" style="edgeStyle=none;curved=1;rounded=0;orthogonalLoop=1;jettySize=auto;html=1;exitX=1;exitY=0.5;exitDx=0;exitDy=0;entryX=0;entryY=0.5;entryDx=0;entryDy=0;fontSize=12;startSize=8;endSize=8;" parent="1" source="qXGo0zyAmWNF7QHiX-dI-14" target="qXGo0zyAmWNF7QHiX-dI-27" edge="1">
          <mxGeometry relative="1" as="geometry" />
        </mxCell>
        <mxCell id="qXGo0zyAmWNF7QHiX-dI-12" value="" style="edgeStyle=none;curved=1;rounded=0;orthogonalLoop=1;jettySize=auto;html=1;fontSize=12;startSize=8;endSize=8;" parent="1" source="qXGo0zyAmWNF7QHiX-dI-14" target="qXGo0zyAmWNF7QHiX-dI-59" edge="1">
          <mxGeometry relative="1" as="geometry" />
        </mxCell>
        <mxCell id="qXGo0zyAmWNF7QHiX-dI-13" value="Cài đặt DNS" style="edgeLabel;html=1;align=center;verticalAlign=middle;resizable=0;points=[];fontSize=12;" parent="qXGo0zyAmWNF7QHiX-dI-12" vertex="1" connectable="0">
          <mxGeometry x="-0.1378" relative="1" as="geometry">
            <mxPoint as="offset" />
          </mxGeometry>
        </mxCell>
        <mxCell id="qXGo0zyAmWNF7QHiX-dI-14" value="Mua tên miền&lt;div&gt;(tenten.vn)&lt;/div&gt;" style="whiteSpace=wrap;html=1;rounded=1;" parent="1" vertex="1">
          <mxGeometry x="620" y="820" width="200" height="80" as="geometry" />
        </mxCell>
        <mxCell id="qXGo0zyAmWNF7QHiX-dI-15" value="" style="edgeStyle=none;curved=1;rounded=0;orthogonalLoop=1;jettySize=auto;html=1;fontSize=12;startSize=8;endSize=8;" parent="1" source="qXGo0zyAmWNF7QHiX-dI-16" target="qXGo0zyAmWNF7QHiX-dI-18" edge="1">
          <mxGeometry relative="1" as="geometry" />
        </mxCell>
        <mxCell id="qXGo0zyAmWNF7QHiX-dI-16" value="Client" style="rounded=1;whiteSpace=wrap;html=1;" parent="1" vertex="1">
          <mxGeometry x="160" y="390" width="120" height="60" as="geometry" />
        </mxCell>
        <mxCell id="qXGo0zyAmWNF7QHiX-dI-17" value="" style="edgeStyle=none;curved=1;rounded=0;orthogonalLoop=1;jettySize=auto;html=1;fontSize=12;startSize=8;endSize=8;" parent="1" source="qXGo0zyAmWNF7QHiX-dI-18" target="qXGo0zyAmWNF7QHiX-dI-20" edge="1">
          <mxGeometry relative="1" as="geometry" />
        </mxCell>
        <mxCell id="qXGo0zyAmWNF7QHiX-dI-18" value="Domain" style="whiteSpace=wrap;html=1;rounded=1;" parent="1" vertex="1">
          <mxGeometry x="400" y="390" width="120" height="60" as="geometry" />
        </mxCell>
        <mxCell id="qXGo0zyAmWNF7QHiX-dI-19" value="" style="edgeStyle=none;curved=1;rounded=0;orthogonalLoop=1;jettySize=auto;html=1;fontSize=12;startSize=8;endSize=8;" parent="1" source="qXGo0zyAmWNF7QHiX-dI-20" target="qXGo0zyAmWNF7QHiX-dI-22" edge="1">
          <mxGeometry relative="1" as="geometry" />
        </mxCell>
        <mxCell id="qXGo0zyAmWNF7QHiX-dI-20" value="VPS IP" style="whiteSpace=wrap;html=1;rounded=1;" parent="1" vertex="1">
          <mxGeometry x="640" y="390" width="120" height="60" as="geometry" />
        </mxCell>
        <mxCell id="qXGo0zyAmWNF7QHiX-dI-21" value="" style="edgeStyle=none;curved=1;rounded=0;orthogonalLoop=1;jettySize=auto;html=1;fontSize=12;startSize=8;endSize=8;" parent="1" source="qXGo0zyAmWNF7QHiX-dI-22" target="qXGo0zyAmWNF7QHiX-dI-23" edge="1">
          <mxGeometry relative="1" as="geometry" />
        </mxCell>
        <mxCell id="qXGo0zyAmWNF7QHiX-dI-22" value="Nginx" style="whiteSpace=wrap;html=1;rounded=1;" parent="1" vertex="1">
          <mxGeometry x="880" y="390" width="120" height="60" as="geometry" />
        </mxCell>
        <mxCell id="qXGo0zyAmWNF7QHiX-dI-23" value="Source code" style="whiteSpace=wrap;html=1;rounded=1;" parent="1" vertex="1">
          <mxGeometry x="1120" y="390" width="120" height="60" as="geometry" />
        </mxCell>
        <mxCell id="qXGo0zyAmWNF7QHiX-dI-24" value="" style="edgeStyle=none;curved=1;rounded=0;orthogonalLoop=1;jettySize=auto;html=1;fontSize=12;startSize=8;endSize=8;" parent="1" source="qXGo0zyAmWNF7QHiX-dI-27" target="qXGo0zyAmWNF7QHiX-dI-30" edge="1">
          <mxGeometry relative="1" as="geometry" />
        </mxCell>
        <mxCell id="qXGo0zyAmWNF7QHiX-dI-25" value="Add user" style="edgeLabel;html=1;align=center;verticalAlign=middle;resizable=0;points=[];fontSize=12;" parent="qXGo0zyAmWNF7QHiX-dI-24" vertex="1" connectable="0">
          <mxGeometry x="-0.1695" y="-1" relative="1" as="geometry">
            <mxPoint as="offset" />
          </mxGeometry>
        </mxCell>
        <mxCell id="qXGo0zyAmWNF7QHiX-dI-26" value="" style="edgeStyle=none;curved=1;rounded=0;orthogonalLoop=1;jettySize=auto;html=1;fontSize=12;startSize=8;endSize=8;" parent="1" source="qXGo0zyAmWNF7QHiX-dI-27" target="qXGo0zyAmWNF7QHiX-dI-34" edge="1">
          <mxGeometry relative="1" as="geometry" />
        </mxCell>
        <mxCell id="qXGo0zyAmWNF7QHiX-dI-27" value="Thêm người dùng" style="rounded=1;whiteSpace=wrap;html=1;" parent="1" vertex="1">
          <mxGeometry x="900" y="820" width="180" height="80" as="geometry" />
        </mxCell>
        <mxCell id="qXGo0zyAmWNF7QHiX-dI-28" value="" style="edgeStyle=none;curved=1;rounded=0;orthogonalLoop=1;jettySize=auto;html=1;fontSize=12;startSize=8;endSize=8;" parent="1" source="qXGo0zyAmWNF7QHiX-dI-30" target="qXGo0zyAmWNF7QHiX-dI-31" edge="1">
          <mxGeometry relative="1" as="geometry" />
        </mxCell>
        <mxCell id="qXGo0zyAmWNF7QHiX-dI-29" value="Thêm user vào sudo group" style="edgeLabel;html=1;align=center;verticalAlign=middle;resizable=0;points=[];fontSize=12;" parent="qXGo0zyAmWNF7QHiX-dI-28" vertex="1" connectable="0">
          <mxGeometry x="0.0767" y="1" relative="1" as="geometry">
            <mxPoint as="offset" />
          </mxGeometry>
        </mxCell>
        <mxCell id="qXGo0zyAmWNF7QHiX-dI-30" value="adduser + (username)" style="rounded=1;whiteSpace=wrap;html=1;" parent="1" vertex="1">
          <mxGeometry x="900" y="980" width="180" height="80" as="geometry" />
        </mxCell>
        <mxCell id="qXGo0zyAmWNF7QHiX-dI-31" value="usermod -aG sudo + username" style="rounded=1;whiteSpace=wrap;html=1;" parent="1" vertex="1">
          <mxGeometry x="900" y="1140" width="180" height="80" as="geometry" />
        </mxCell>
        <mxCell id="qXGo0zyAmWNF7QHiX-dI-32" value="" style="edgeStyle=none;curved=1;rounded=0;orthogonalLoop=1;jettySize=auto;html=1;fontSize=12;startSize=8;endSize=8;" parent="1" source="qXGo0zyAmWNF7QHiX-dI-34" target="qXGo0zyAmWNF7QHiX-dI-36" edge="1">
          <mxGeometry relative="1" as="geometry" />
        </mxCell>
        <mxCell id="qXGo0zyAmWNF7QHiX-dI-33" value="" style="edgeStyle=none;curved=1;rounded=0;orthogonalLoop=1;jettySize=auto;html=1;fontSize=12;startSize=8;endSize=8;" parent="1" source="qXGo0zyAmWNF7QHiX-dI-34" target="qXGo0zyAmWNF7QHiX-dI-39" edge="1">
          <mxGeometry relative="1" as="geometry" />
        </mxCell>
        <mxCell id="qXGo0zyAmWNF7QHiX-dI-34" value="Cài nginx" style="rounded=1;whiteSpace=wrap;html=1;" parent="1" vertex="1">
          <mxGeometry x="1200" y="820" width="180" height="80" as="geometry" />
        </mxCell>
        <mxCell id="qXGo0zyAmWNF7QHiX-dI-35" value="" style="edgeStyle=none;curved=1;rounded=0;orthogonalLoop=1;jettySize=auto;html=1;fontSize=12;startSize=8;endSize=8;" parent="1" source="qXGo0zyAmWNF7QHiX-dI-36" target="qXGo0zyAmWNF7QHiX-dI-51" edge="1">
          <mxGeometry relative="1" as="geometry" />
        </mxCell>
        <mxCell id="Udrxpl8e12mHpJj6cbQr-1" value="Kiểm tra trạng thái nginx&amp;nbsp;" style="edgeLabel;html=1;align=center;verticalAlign=middle;resizable=0;points=[];fontSize=12;" vertex="1" connectable="0" parent="qXGo0zyAmWNF7QHiX-dI-35">
          <mxGeometry x="-0.0533" y="2" relative="1" as="geometry">
            <mxPoint as="offset" />
          </mxGeometry>
        </mxCell>
        <mxCell id="qXGo0zyAmWNF7QHiX-dI-36" value="sudo apt install nginx -y&lt;br&gt;(mặc định chạy port 80)" style="rounded=1;whiteSpace=wrap;html=1;" parent="1" vertex="1">
          <mxGeometry x="1200" y="980" width="180" height="80" as="geometry" />
        </mxCell>
        <mxCell id="qXGo0zyAmWNF7QHiX-dI-37" value="" style="edgeStyle=none;curved=1;rounded=0;orthogonalLoop=1;jettySize=auto;html=1;fontSize=12;startSize=8;endSize=8;" parent="1" source="qXGo0zyAmWNF7QHiX-dI-39" target="qXGo0zyAmWNF7QHiX-dI-42" edge="1">
          <mxGeometry relative="1" as="geometry" />
        </mxCell>
        <mxCell id="Udrxpl8e12mHpJj6cbQr-3" value="Cách này chọn đc cụ thể phiên bản" style="edgeLabel;html=1;align=center;verticalAlign=middle;resizable=0;points=[];fontSize=12;" vertex="1" connectable="0" parent="qXGo0zyAmWNF7QHiX-dI-37">
          <mxGeometry x="-0.1785" y="3" relative="1" as="geometry">
            <mxPoint as="offset" />
          </mxGeometry>
        </mxCell>
        <mxCell id="qXGo0zyAmWNF7QHiX-dI-38" value="" style="edgeStyle=none;curved=1;rounded=0;orthogonalLoop=1;jettySize=auto;html=1;fontSize=12;startSize=8;endSize=8;" parent="1" source="qXGo0zyAmWNF7QHiX-dI-39" target="qXGo0zyAmWNF7QHiX-dI-46" edge="1">
          <mxGeometry relative="1" as="geometry" />
        </mxCell>
        <mxCell id="qXGo0zyAmWNF7QHiX-dI-39" value="Cài nodejs" style="rounded=1;whiteSpace=wrap;html=1;" parent="1" vertex="1">
          <mxGeometry x="1500" y="820" width="180" height="80" as="geometry" />
        </mxCell>
        <mxCell id="qXGo0zyAmWNF7QHiX-dI-40" style="edgeStyle=none;curved=1;rounded=0;orthogonalLoop=1;jettySize=auto;html=1;exitX=0.5;exitY=1;exitDx=0;exitDy=0;fontSize=12;startSize=8;endSize=8;entryX=0.5;entryY=0;entryDx=0;entryDy=0;" parent="1" source="qXGo0zyAmWNF7QHiX-dI-8" target="qXGo0zyAmWNF7QHiX-dI-10" edge="1">
          <mxGeometry relative="1" as="geometry">
            <mxPoint x="437" y="942" as="targetPoint" />
          </mxGeometry>
        </mxCell>
        <mxCell id="qXGo0zyAmWNF7QHiX-dI-41" value="" style="edgeStyle=none;curved=1;rounded=0;orthogonalLoop=1;jettySize=auto;html=1;fontSize=12;startSize=8;endSize=8;" parent="1" source="qXGo0zyAmWNF7QHiX-dI-42" target="qXGo0zyAmWNF7QHiX-dI-44" edge="1">
          <mxGeometry relative="1" as="geometry" />
        </mxCell>
        <mxCell id="qXGo0zyAmWNF7QHiX-dI-42" value="cd ~&#xa;&#xa;curl -sL https://deb.nodesource.com/setup_20.x -o nodesource_setup.sh" style="rounded=1;html=1;whiteSpace=wrap;align=center;verticalAlign=middle;" parent="1" vertex="1">
          <mxGeometry x="1475" y="1030" width="230" height="100" as="geometry" />
        </mxCell>
        <mxCell id="qXGo0zyAmWNF7QHiX-dI-43" value="" style="edgeStyle=none;curved=1;rounded=0;orthogonalLoop=1;jettySize=auto;html=1;fontSize=12;startSize=8;endSize=8;" parent="1" source="qXGo0zyAmWNF7QHiX-dI-44" target="qXGo0zyAmWNF7QHiX-dI-45" edge="1">
          <mxGeometry relative="1" as="geometry" />
        </mxCell>
        <mxCell id="qXGo0zyAmWNF7QHiX-dI-44" value="sudo bash nodesource_setup.sh" style="rounded=1;html=1;whiteSpace=wrap;align=center;verticalAlign=middle;" parent="1" vertex="1">
          <mxGeometry x="1475" y="1250" width="230" height="100" as="geometry" />
        </mxCell>
        <mxCell id="qXGo0zyAmWNF7QHiX-dI-45" value="sudo apt install nodejs -y" style="rounded=1;html=1;whiteSpace=wrap;align=center;verticalAlign=middle;" parent="1" vertex="1">
          <mxGeometry x="1475" y="1470" width="230" height="100" as="geometry" />
        </mxCell>
        <mxCell id="qXGo0zyAmWNF7QHiX-dI-46" value="Clone code về folder của dự án" style="rounded=1;whiteSpace=wrap;html=1;" parent="1" vertex="1">
          <mxGeometry x="1800" y="820" width="180" height="80" as="geometry" />
        </mxCell>
        <mxCell id="qXGo0zyAmWNF7QHiX-dI-47" value="" style="edgeStyle=none;curved=1;rounded=0;orthogonalLoop=1;jettySize=auto;html=1;fontSize=12;startSize=8;endSize=8;" parent="1" source="qXGo0zyAmWNF7QHiX-dI-48" target="qXGo0zyAmWNF7QHiX-dI-55" edge="1">
          <mxGeometry relative="1" as="geometry" />
        </mxCell>
        <mxCell id="qXGo0zyAmWNF7QHiX-dI-48" value="npm run build" style="rounded=1;whiteSpace=wrap;html=1;" parent="1" vertex="1">
          <mxGeometry x="2090" y="990" width="180" height="80" as="geometry" />
        </mxCell>
        <mxCell id="qXGo0zyAmWNF7QHiX-dI-49" value="sau khi build có thư mục dist" style="shape=callout;whiteSpace=wrap;html=1;perimeter=calloutPerimeter;flipH=1;" parent="1" vertex="1">
          <mxGeometry x="2040" y="910" width="120" height="80" as="geometry" />
        </mxCell>
        <mxCell id="qXGo0zyAmWNF7QHiX-dI-50" value="" style="edgeStyle=none;curved=1;rounded=0;orthogonalLoop=1;jettySize=auto;html=1;fontSize=12;startSize=8;endSize=8;" parent="1" source="qXGo0zyAmWNF7QHiX-dI-51" target="qXGo0zyAmWNF7QHiX-dI-52" edge="1">
          <mxGeometry relative="1" as="geometry" />
        </mxCell>
        <mxCell id="Udrxpl8e12mHpJj6cbQr-2" value="Tự bật nginx khi server bật" style="edgeLabel;html=1;align=center;verticalAlign=middle;resizable=0;points=[];fontSize=12;" vertex="1" connectable="0" parent="qXGo0zyAmWNF7QHiX-dI-50">
          <mxGeometry x="-0.1967" y="2" relative="1" as="geometry">
            <mxPoint as="offset" />
          </mxGeometry>
        </mxCell>
        <mxCell id="qXGo0zyAmWNF7QHiX-dI-51" value="systemctl status nginx" style="rounded=1;whiteSpace=wrap;html=1;" parent="1" vertex="1">
          <mxGeometry x="1200" y="1180" width="180" height="80" as="geometry" />
        </mxCell>
        <mxCell id="qXGo0zyAmWNF7QHiX-dI-52" value="sudo systemctl enable nginx" style="rounded=1;whiteSpace=wrap;html=1;" parent="1" vertex="1">
          <mxGeometry x="1200" y="1380" width="180" height="80" as="geometry" />
        </mxCell>
        <mxCell id="qXGo0zyAmWNF7QHiX-dI-53" value="" style="edgeStyle=none;curved=1;rounded=0;orthogonalLoop=1;jettySize=auto;html=1;fontSize=12;startSize=8;endSize=8;" parent="1" source="qXGo0zyAmWNF7QHiX-dI-55" target="qXGo0zyAmWNF7QHiX-dI-58" edge="1">
          <mxGeometry relative="1" as="geometry" />
        </mxCell>
        <mxCell id="qXGo0zyAmWNF7QHiX-dI-54" value="" style="edgeStyle=none;curved=1;rounded=0;orthogonalLoop=1;jettySize=auto;html=1;fontSize=12;startSize=8;endSize=8;" parent="1" source="qXGo0zyAmWNF7QHiX-dI-55" target="qXGo0zyAmWNF7QHiX-dI-71" edge="1">
          <mxGeometry relative="1" as="geometry" />
        </mxCell>
        <mxCell id="qXGo0zyAmWNF7QHiX-dI-55" value="Setting server" style="rounded=1;whiteSpace=wrap;html=1;" parent="1" vertex="1">
          <mxGeometry x="2390" y="990" width="180" height="80" as="geometry" />
        </mxCell>
        <mxCell id="qXGo0zyAmWNF7QHiX-dI-56" value="" style="edgeStyle=none;curved=1;rounded=0;orthogonalLoop=1;jettySize=auto;html=1;fontSize=12;startSize=8;endSize=8;" parent="1" source="qXGo0zyAmWNF7QHiX-dI-58" target="qXGo0zyAmWNF7QHiX-dI-62" edge="1">
          <mxGeometry relative="1" as="geometry" />
        </mxCell>
        <mxCell id="qXGo0zyAmWNF7QHiX-dI-57" value="Thay đổi chủ sở hữu" style="edgeLabel;html=1;align=center;verticalAlign=middle;resizable=0;points=[];fontSize=12;" parent="qXGo0zyAmWNF7QHiX-dI-56" vertex="1" connectable="0">
          <mxGeometry x="-0.0489" y="2" relative="1" as="geometry">
            <mxPoint as="offset" />
          </mxGeometry>
        </mxCell>
        <mxCell id="qXGo0zyAmWNF7QHiX-dI-58" value="sudo mkdir -p /var/www/(your_domain)/html" style="rounded=1;whiteSpace=wrap;html=1;" parent="1" vertex="1">
          <mxGeometry x="2390" y="1190" width="180" height="80" as="geometry" />
        </mxCell>
        <mxCell id="qXGo0zyAmWNF7QHiX-dI-59" value="Tên: @, Loại A, Giá trị: IP&lt;br&gt;Tên: *, Loại: CNAME, Giá trị: domain" style="whiteSpace=wrap;html=1;rounded=1;" parent="1" vertex="1">
          <mxGeometry x="615" y="1020" width="210" height="80" as="geometry" />
        </mxCell>
        <mxCell id="qXGo0zyAmWNF7QHiX-dI-60" value="" style="edgeStyle=none;curved=1;rounded=0;orthogonalLoop=1;jettySize=auto;html=1;fontSize=12;startSize=8;endSize=8;" parent="1" source="qXGo0zyAmWNF7QHiX-dI-62" target="qXGo0zyAmWNF7QHiX-dI-65" edge="1">
          <mxGeometry relative="1" as="geometry" />
        </mxCell>
        <mxCell id="qXGo0zyAmWNF7QHiX-dI-61" value="Phân quyền" style="edgeLabel;html=1;align=center;verticalAlign=middle;resizable=0;points=[];" parent="qXGo0zyAmWNF7QHiX-dI-60" vertex="1" connectable="0">
          <mxGeometry x="-0.2711" y="3" relative="1" as="geometry">
            <mxPoint as="offset" />
          </mxGeometry>
        </mxCell>
        <mxCell id="qXGo0zyAmWNF7QHiX-dI-62" value="sudo chown -R $USER:$USER /var/www/your_domain/html" style="rounded=1;whiteSpace=wrap;html=1;" parent="1" vertex="1">
          <mxGeometry x="2390" y="1390" width="180" height="80" as="geometry" />
        </mxCell>
        <mxCell id="qXGo0zyAmWNF7QHiX-dI-63" value="" style="edgeStyle=none;curved=1;rounded=0;orthogonalLoop=1;jettySize=auto;html=1;fontSize=12;startSize=8;endSize=8;" parent="1" source="qXGo0zyAmWNF7QHiX-dI-65" target="qXGo0zyAmWNF7QHiX-dI-68" edge="1">
          <mxGeometry relative="1" as="geometry" />
        </mxCell>
        <mxCell id="qXGo0zyAmWNF7QHiX-dI-64" value="Copy các file trong dist vừa tạo vào html" style="edgeLabel;html=1;align=center;verticalAlign=middle;resizable=0;points=[];fontSize=12;" parent="qXGo0zyAmWNF7QHiX-dI-63" vertex="1" connectable="0">
          <mxGeometry x="-0.0933" y="3" relative="1" as="geometry">
            <mxPoint as="offset" />
          </mxGeometry>
        </mxCell>
        <mxCell id="qXGo0zyAmWNF7QHiX-dI-65" value="sudo chmod -R 755 /var/www/your_domain" style="rounded=1;whiteSpace=wrap;html=1;" parent="1" vertex="1">
          <mxGeometry x="2390" y="1590" width="180" height="80" as="geometry" />
        </mxCell>
        <mxCell id="qXGo0zyAmWNF7QHiX-dI-66" style="edgeStyle=none;curved=1;rounded=0;orthogonalLoop=1;jettySize=auto;html=1;exitX=0.5;exitY=1;exitDx=0;exitDy=0;entryX=0.5;entryY=0;entryDx=0;entryDy=0;fontSize=12;startSize=8;endSize=8;" parent="1" source="qXGo0zyAmWNF7QHiX-dI-68" target="qXGo0zyAmWNF7QHiX-dI-119" edge="1">
          <mxGeometry relative="1" as="geometry" />
        </mxCell>
        <mxCell id="qXGo0zyAmWNF7QHiX-dI-67" value="Hoặc" style="edgeLabel;html=1;align=center;verticalAlign=middle;resizable=0;points=[];fontSize=12;" parent="qXGo0zyAmWNF7QHiX-dI-66" vertex="1" connectable="0">
          <mxGeometry x="-0.19" relative="1" as="geometry">
            <mxPoint as="offset" />
          </mxGeometry>
        </mxCell>
        <mxCell id="qXGo0zyAmWNF7QHiX-dI-68" value="sudo cp -r ...dist/* /var/www/your_domain/html/" style="rounded=1;whiteSpace=wrap;html=1;" parent="1" vertex="1">
          <mxGeometry x="2390" y="1790" width="180" height="80" as="geometry" />
        </mxCell>
        <mxCell id="qXGo0zyAmWNF7QHiX-dI-69" value="" style="edgeStyle=none;curved=1;rounded=0;orthogonalLoop=1;jettySize=auto;html=1;fontSize=12;startSize=8;endSize=8;" parent="1" source="qXGo0zyAmWNF7QHiX-dI-71" target="qXGo0zyAmWNF7QHiX-dI-73" edge="1">
          <mxGeometry relative="1" as="geometry" />
        </mxCell>
        <mxCell id="qXGo0zyAmWNF7QHiX-dI-70" value="" style="edgeStyle=none;curved=1;rounded=0;orthogonalLoop=1;jettySize=auto;html=1;fontSize=12;startSize=8;endSize=8;" parent="1" source="qXGo0zyAmWNF7QHiX-dI-71" target="qXGo0zyAmWNF7QHiX-dI-81" edge="1">
          <mxGeometry relative="1" as="geometry" />
        </mxCell>
        <mxCell id="qXGo0zyAmWNF7QHiX-dI-71" value="Cấu hình để sites-available trỏ vào thư mục html của project" style="rounded=1;whiteSpace=wrap;html=1;" parent="1" vertex="1">
          <mxGeometry x="2690" y="990" width="180" height="80" as="geometry" />
        </mxCell>
        <mxCell id="qXGo0zyAmWNF7QHiX-dI-72" value="" style="edgeStyle=none;curved=1;rounded=0;orthogonalLoop=1;jettySize=auto;html=1;fontSize=12;startSize=8;endSize=8;" parent="1" source="qXGo0zyAmWNF7QHiX-dI-73" target="qXGo0zyAmWNF7QHiX-dI-76" edge="1">
          <mxGeometry relative="1" as="geometry" />
        </mxCell>
        <mxCell id="qXGo0zyAmWNF7QHiX-dI-73" value="sudo vi /etc/nginx/sites-available/your_domain" style="rounded=1;whiteSpace=wrap;html=1;" parent="1" vertex="1">
          <mxGeometry x="2690" y="1190" width="180" height="80" as="geometry" />
        </mxCell>
        <mxCell id="qXGo0zyAmWNF7QHiX-dI-74" value="" style="edgeStyle=none;curved=1;rounded=0;orthogonalLoop=1;jettySize=auto;html=1;fontSize=12;startSize=8;endSize=8;" parent="1" source="qXGo0zyAmWNF7QHiX-dI-76" target="qXGo0zyAmWNF7QHiX-dI-78" edge="1">
          <mxGeometry relative="1" as="geometry" />
        </mxCell>
        <mxCell id="qXGo0zyAmWNF7QHiX-dI-75" value="Test cấu hình" style="edgeLabel;html=1;align=center;verticalAlign=middle;resizable=0;points=[];fontSize=12;" parent="qXGo0zyAmWNF7QHiX-dI-74" vertex="1" connectable="0">
          <mxGeometry x="0.0178" y="3" relative="1" as="geometry">
            <mxPoint as="offset" />
          </mxGeometry>
        </mxCell>
        <mxCell id="qXGo0zyAmWNF7QHiX-dI-77" value="" style="edgeStyle=none;curved=1;rounded=0;orthogonalLoop=1;jettySize=auto;html=1;fontSize=12;startSize=8;endSize=8;" parent="1" source="qXGo0zyAmWNF7QHiX-dI-78" target="qXGo0zyAmWNF7QHiX-dI-79" edge="1">
          <mxGeometry relative="1" as="geometry" />
        </mxCell>
        <mxCell id="qXGo0zyAmWNF7QHiX-dI-78" value="sudo nginx -t" style="rounded=1;whiteSpace=wrap;html=1;" parent="1" vertex="1">
          <mxGeometry x="2690" y="1590" width="180" height="80" as="geometry" />
        </mxCell>
        <mxCell id="qXGo0zyAmWNF7QHiX-dI-79" value="service nginx reload" style="rounded=1;whiteSpace=wrap;html=1;" parent="1" vertex="1">
          <mxGeometry x="2690" y="1790" width="180" height="80" as="geometry" />
        </mxCell>
        <mxCell id="qXGo0zyAmWNF7QHiX-dI-80" value="" style="edgeStyle=none;curved=1;rounded=0;orthogonalLoop=1;jettySize=auto;html=1;fontSize=12;startSize=8;endSize=8;" parent="1" source="qXGo0zyAmWNF7QHiX-dI-81" target="qXGo0zyAmWNF7QHiX-dI-83" edge="1">
          <mxGeometry relative="1" as="geometry" />
        </mxCell>
        <mxCell id="Udrxpl8e12mHpJj6cbQr-22" style="edgeStyle=none;curved=1;rounded=0;orthogonalLoop=1;jettySize=auto;html=1;exitX=1;exitY=0.5;exitDx=0;exitDy=0;fontSize=12;startSize=8;endSize=8;endArrow=none;endFill=0;" edge="1" parent="1" source="qXGo0zyAmWNF7QHiX-dI-81">
          <mxGeometry relative="1" as="geometry">
            <mxPoint x="3880" y="1030.5384615384614" as="targetPoint" />
          </mxGeometry>
        </mxCell>
        <mxCell id="qXGo0zyAmWNF7QHiX-dI-81" value="Tạo symlinks " style="rounded=1;whiteSpace=wrap;html=1;" parent="1" vertex="1">
          <mxGeometry x="2990" y="990" width="180" height="80" as="geometry" />
        </mxCell>
        <mxCell id="qXGo0zyAmWNF7QHiX-dI-82" value="" style="edgeStyle=none;curved=1;rounded=0;orthogonalLoop=1;jettySize=auto;html=1;fontSize=12;startSize=8;endSize=8;" parent="1" source="qXGo0zyAmWNF7QHiX-dI-83" target="qXGo0zyAmWNF7QHiX-dI-85" edge="1">
          <mxGeometry relative="1" as="geometry" />
        </mxCell>
        <mxCell id="qXGo0zyAmWNF7QHiX-dI-83" value="sudo ln -s /etc/nginx/sites-available/your_domain /etc/nginx/sites-enabled/your_domain" style="rounded=1;whiteSpace=wrap;html=1;" parent="1" vertex="1">
          <mxGeometry x="2990" y="1190" width="180" height="80" as="geometry" />
        </mxCell>
        <mxCell id="qXGo0zyAmWNF7QHiX-dI-84" value="" style="edgeStyle=none;curved=1;rounded=0;orthogonalLoop=1;jettySize=auto;html=1;fontSize=12;startSize=8;endSize=8;" parent="1" source="qXGo0zyAmWNF7QHiX-dI-85" target="qXGo0zyAmWNF7QHiX-dI-86" edge="1">
          <mxGeometry relative="1" as="geometry" />
        </mxCell>
        <mxCell id="qXGo0zyAmWNF7QHiX-dI-85" value="sudo nginx -t" style="rounded=1;whiteSpace=wrap;html=1;" parent="1" vertex="1">
          <mxGeometry x="2990" y="1390" width="180" height="80" as="geometry" />
        </mxCell>
        <mxCell id="qXGo0zyAmWNF7QHiX-dI-86" value="service nginx reload" style="rounded=1;whiteSpace=wrap;html=1;" parent="1" vertex="1">
          <mxGeometry x="2990" y="1590" width="180" height="80" as="geometry" />
        </mxCell>
        <mxCell id="qXGo0zyAmWNF7QHiX-dI-87" value="" style="edgeStyle=none;curved=1;rounded=0;orthogonalLoop=1;jettySize=auto;html=1;fontSize=12;startSize=8;endSize=8;" parent="1" source="qXGo0zyAmWNF7QHiX-dI-89" target="qXGo0zyAmWNF7QHiX-dI-94" edge="1">
          <mxGeometry relative="1" as="geometry" />
        </mxCell>
        <mxCell id="qXGo0zyAmWNF7QHiX-dI-88" value="" style="edgeStyle=none;curved=1;rounded=0;orthogonalLoop=1;jettySize=auto;html=1;fontSize=12;startSize=8;endSize=8;" parent="1" source="qXGo0zyAmWNF7QHiX-dI-89" target="qXGo0zyAmWNF7QHiX-dI-100" edge="1">
          <mxGeometry relative="1" as="geometry" />
        </mxCell>
        <mxCell id="qXGo0zyAmWNF7QHiX-dI-89" value="Cài pm2" style="rounded=1;whiteSpace=wrap;html=1;" parent="1" vertex="1">
          <mxGeometry x="2090" y="640" width="180" height="80" as="geometry" />
        </mxCell>
        <mxCell id="qXGo0zyAmWNF7QHiX-dI-90" value="" style="strokeWidth=2;html=1;shape=mxgraph.flowchart.annotation_2;align=left;labelPosition=right;pointerEvents=1;" parent="1" vertex="1">
          <mxGeometry x="1980" y="685" width="110" height="350" as="geometry" />
        </mxCell>
        <mxCell id="qXGo0zyAmWNF7QHiX-dI-91" value="BE" style="text;html=1;align=center;verticalAlign=middle;resizable=0;points=[];autosize=1;strokeColor=none;fillColor=none;fontSize=16;" parent="1" vertex="1">
          <mxGeometry x="2045" y="655" width="40" height="30" as="geometry" />
        </mxCell>
        <mxCell id="qXGo0zyAmWNF7QHiX-dI-92" value="FE" style="text;html=1;align=center;verticalAlign=middle;resizable=0;points=[];autosize=1;strokeColor=none;fillColor=none;fontSize=16;" parent="1" vertex="1">
          <mxGeometry x="2045" y="1030" width="40" height="30" as="geometry" />
        </mxCell>
        <mxCell id="qXGo0zyAmWNF7QHiX-dI-93" value="" style="edgeStyle=none;curved=1;rounded=0;orthogonalLoop=1;jettySize=auto;html=1;fontSize=12;startSize=8;endSize=8;" parent="1" source="qXGo0zyAmWNF7QHiX-dI-94" target="qXGo0zyAmWNF7QHiX-dI-96" edge="1">
          <mxGeometry relative="1" as="geometry" />
        </mxCell>
        <mxCell id="qXGo0zyAmWNF7QHiX-dI-94" value="sudo npm install pm2@latest -g" style="rounded=1;whiteSpace=wrap;html=1;" parent="1" vertex="1">
          <mxGeometry x="2090" y="440" width="180" height="80" as="geometry" />
        </mxCell>
        <mxCell id="qXGo0zyAmWNF7QHiX-dI-95" value="" style="edgeStyle=none;curved=1;rounded=0;orthogonalLoop=1;jettySize=auto;html=1;fontSize=12;startSize=8;endSize=8;" parent="1" source="qXGo0zyAmWNF7QHiX-dI-96" target="qXGo0zyAmWNF7QHiX-dI-97" edge="1">
          <mxGeometry relative="1" as="geometry" />
        </mxCell>
        <mxCell id="qXGo0zyAmWNF7QHiX-dI-96" value="pm2 --version" style="rounded=1;whiteSpace=wrap;html=1;" parent="1" vertex="1">
          <mxGeometry x="2090" y="240" width="180" height="80" as="geometry" />
        </mxCell>
        <mxCell id="qXGo0zyAmWNF7QHiX-dI-97" value="pm2 startup&lt;br&gt;&lt;br&gt;copy/paste the following command" style="rounded=1;whiteSpace=wrap;html=1;" parent="1" vertex="1">
          <mxGeometry x="2090" y="40" width="180" height="80" as="geometry" />
        </mxCell>
        <mxCell id="qXGo0zyAmWNF7QHiX-dI-98" value="" style="edgeStyle=none;curved=1;rounded=0;orthogonalLoop=1;jettySize=auto;html=1;fontSize=12;startSize=8;endSize=8;" parent="1" source="qXGo0zyAmWNF7QHiX-dI-100" target="qXGo0zyAmWNF7QHiX-dI-102" edge="1">
          <mxGeometry relative="1" as="geometry" />
        </mxCell>
        <mxCell id="qXGo0zyAmWNF7QHiX-dI-99" value="" style="edgeStyle=none;curved=1;rounded=0;orthogonalLoop=1;jettySize=auto;html=1;fontSize=12;startSize=8;endSize=8;" parent="1" source="qXGo0zyAmWNF7QHiX-dI-100" target="qXGo0zyAmWNF7QHiX-dI-105" edge="1">
          <mxGeometry relative="1" as="geometry" />
        </mxCell>
        <mxCell id="qXGo0zyAmWNF7QHiX-dI-100" value="Chạy server bằng pm2" style="rounded=1;whiteSpace=wrap;html=1;" parent="1" vertex="1">
          <mxGeometry x="2390" y="640" width="180" height="80" as="geometry" />
        </mxCell>
        <mxCell id="qXGo0zyAmWNF7QHiX-dI-101" value="" style="edgeStyle=none;curved=1;rounded=0;orthogonalLoop=1;jettySize=auto;html=1;fontSize=12;startSize=8;endSize=8;" parent="1" source="qXGo0zyAmWNF7QHiX-dI-102" target="qXGo0zyAmWNF7QHiX-dI-106" edge="1">
          <mxGeometry relative="1" as="geometry" />
        </mxCell>
        <mxCell id="qXGo0zyAmWNF7QHiX-dI-102" value="pm2 start + path to server.js" style="rounded=1;whiteSpace=wrap;html=1;" parent="1" vertex="1">
          <mxGeometry x="2390" y="440" width="180" height="80" as="geometry" />
        </mxCell>
        <mxCell id="qXGo0zyAmWNF7QHiX-dI-103" value="" style="edgeStyle=none;curved=1;rounded=0;orthogonalLoop=1;jettySize=auto;html=1;fontSize=12;startSize=8;endSize=8;" parent="1" source="qXGo0zyAmWNF7QHiX-dI-105" target="qXGo0zyAmWNF7QHiX-dI-108" edge="1">
          <mxGeometry relative="1" as="geometry" />
        </mxCell>
        <mxCell id="qXGo0zyAmWNF7QHiX-dI-104" value="" style="edgeStyle=none;curved=1;rounded=0;orthogonalLoop=1;jettySize=auto;html=1;fontSize=12;startSize=8;endSize=8;" parent="1" source="qXGo0zyAmWNF7QHiX-dI-105" target="qXGo0zyAmWNF7QHiX-dI-112" edge="1">
          <mxGeometry relative="1" as="geometry" />
        </mxCell>
        <mxCell id="qXGo0zyAmWNF7QHiX-dI-105" value="Cấu hình site-available" style="rounded=1;whiteSpace=wrap;html=1;" parent="1" vertex="1">
          <mxGeometry x="2690" y="640" width="180" height="80" as="geometry" />
        </mxCell>
        <mxCell id="qXGo0zyAmWNF7QHiX-dI-106" value="pm2 save" style="rounded=1;whiteSpace=wrap;html=1;" parent="1" vertex="1">
          <mxGeometry x="2390" y="240" width="180" height="80" as="geometry" />
        </mxCell>
        <mxCell id="qXGo0zyAmWNF7QHiX-dI-107" value="" style="edgeStyle=none;curved=1;rounded=0;orthogonalLoop=1;jettySize=auto;html=1;fontSize=12;startSize=8;endSize=8;" parent="1" source="qXGo0zyAmWNF7QHiX-dI-108" target="qXGo0zyAmWNF7QHiX-dI-109" edge="1">
          <mxGeometry relative="1" as="geometry" />
        </mxCell>
        <mxCell id="qXGo0zyAmWNF7QHiX-dI-108" value="Tương tự FE nhưng đặt tên khác (ví dụ thêm api ở trước)" style="rounded=1;whiteSpace=wrap;html=1;" parent="1" vertex="1">
          <mxGeometry x="2690" y="440" width="180" height="80" as="geometry" />
        </mxCell>
        <mxCell id="qXGo0zyAmWNF7QHiX-dI-109" value="Config (https://github.com/MikMiik/Note/blob/main/be-site-available-config)" style="rounded=1;whiteSpace=wrap;html=1;" parent="1" vertex="1">
          <mxGeometry x="2690" y="240" width="180" height="80" as="geometry" />
        </mxCell>
        <mxCell id="qXGo0zyAmWNF7QHiX-dI-110" style="edgeStyle=none;curved=1;rounded=0;orthogonalLoop=1;jettySize=auto;html=1;exitX=0.5;exitY=0;exitDx=0;exitDy=0;entryX=0.5;entryY=1;entryDx=0;entryDy=0;fontSize=12;startSize=8;endSize=8;" parent="1" source="qXGo0zyAmWNF7QHiX-dI-112" target="qXGo0zyAmWNF7QHiX-dI-114" edge="1">
          <mxGeometry relative="1" as="geometry" />
        </mxCell>
        <mxCell id="qXGo0zyAmWNF7QHiX-dI-111" value="" style="edgeStyle=none;curved=1;rounded=0;orthogonalLoop=1;jettySize=auto;html=1;fontSize=12;startSize=8;endSize=8;" parent="1" source="qXGo0zyAmWNF7QHiX-dI-112" target="qXGo0zyAmWNF7QHiX-dI-118" edge="1">
          <mxGeometry relative="1" as="geometry" />
        </mxCell>
        <mxCell id="qXGo0zyAmWNF7QHiX-dI-112" value="Tạo symlinks" style="rounded=1;whiteSpace=wrap;html=1;" parent="1" vertex="1">
          <mxGeometry x="2990" y="640" width="180" height="80" as="geometry" />
        </mxCell>
        <mxCell id="qXGo0zyAmWNF7QHiX-dI-113" value="" style="edgeStyle=none;curved=1;rounded=0;orthogonalLoop=1;jettySize=auto;html=1;fontSize=12;startSize=8;endSize=8;" parent="1" source="qXGo0zyAmWNF7QHiX-dI-114" target="qXGo0zyAmWNF7QHiX-dI-116" edge="1">
          <mxGeometry relative="1" as="geometry" />
        </mxCell>
        <mxCell id="qXGo0zyAmWNF7QHiX-dI-114" value="Tương tự FE nhưng symlinks đặt tên khác (ví dụ thêm api ở trước)" style="rounded=1;whiteSpace=wrap;html=1;" parent="1" vertex="1">
          <mxGeometry x="2990" y="440" width="180" height="80" as="geometry" />
        </mxCell>
        <mxCell id="qXGo0zyAmWNF7QHiX-dI-115" value="" style="edgeStyle=none;curved=1;rounded=0;orthogonalLoop=1;jettySize=auto;html=1;fontSize=12;startSize=8;endSize=8;" parent="1" source="qXGo0zyAmWNF7QHiX-dI-116" target="qXGo0zyAmWNF7QHiX-dI-117" edge="1">
          <mxGeometry relative="1" as="geometry" />
        </mxCell>
        <mxCell id="qXGo0zyAmWNF7QHiX-dI-116" value="sudo nginx -t" style="rounded=1;whiteSpace=wrap;html=1;" parent="1" vertex="1">
          <mxGeometry x="2990" y="240" width="180" height="80" as="geometry" />
        </mxCell>
        <mxCell id="qXGo0zyAmWNF7QHiX-dI-117" value="service nginx reload" style="rounded=1;whiteSpace=wrap;html=1;" parent="1" vertex="1">
          <mxGeometry x="2990" y="40" width="180" height="80" as="geometry" />
        </mxCell>
        <mxCell id="Udrxpl8e12mHpJj6cbQr-6" value="" style="edgeStyle=none;curved=1;rounded=0;orthogonalLoop=1;jettySize=auto;html=1;fontSize=12;startSize=8;endSize=8;" edge="1" parent="1" source="qXGo0zyAmWNF7QHiX-dI-118" target="Udrxpl8e12mHpJj6cbQr-5">
          <mxGeometry relative="1" as="geometry" />
        </mxCell>
        <mxCell id="Udrxpl8e12mHpJj6cbQr-14" value="" style="edgeStyle=none;curved=1;rounded=0;orthogonalLoop=1;jettySize=auto;html=1;fontSize=12;startSize=8;endSize=8;" edge="1" parent="1" source="qXGo0zyAmWNF7QHiX-dI-118" target="Udrxpl8e12mHpJj6cbQr-13">
          <mxGeometry relative="1" as="geometry" />
        </mxCell>
        <mxCell id="qXGo0zyAmWNF7QHiX-dI-118" value="Cài mariadb/mysql&amp;nbsp;" style="rounded=1;whiteSpace=wrap;html=1;" parent="1" vertex="1">
          <mxGeometry x="3290" y="640" width="180" height="80" as="geometry" />
        </mxCell>
        <mxCell id="qXGo0zyAmWNF7QHiX-dI-119" value="sudo rsync -avh --delete .../dist/ /var/www/your_domain/html/" style="whiteSpace=wrap;html=1;rounded=1;" parent="1" vertex="1">
          <mxGeometry x="2390" y="1950" width="180" height="70" as="geometry" />
        </mxCell>
        <mxCell id="qXGo0zyAmWNF7QHiX-dI-76" value="Cấu hình sites-available&lt;br&gt;&amp;nbsp;(https://github.com/MikMiik/Note/blob/main/fe-site-available-config)" style="rounded=1;fillColor=default;html=1;whiteSpace=wrap;" parent="1" vertex="1">
          <mxGeometry x="2690" y="1390" width="180" height="80" as="geometry" />
        </mxCell>
        <mxCell id="Udrxpl8e12mHpJj6cbQr-8" value="" style="edgeStyle=none;curved=1;rounded=0;orthogonalLoop=1;jettySize=auto;html=1;fontSize=12;startSize=8;endSize=8;" edge="1" parent="1" source="Udrxpl8e12mHpJj6cbQr-5" target="Udrxpl8e12mHpJj6cbQr-7">
          <mxGeometry relative="1" as="geometry" />
        </mxCell>
        <mxCell id="Udrxpl8e12mHpJj6cbQr-5" value="&lt;br&gt;sudo apt install mariadb-server&lt;br&gt;sudo mysql_secure_installation" style="rounded=1;whiteSpace=wrap;html=1;" vertex="1" parent="1">
          <mxGeometry x="3290" y="440" width="180" height="80" as="geometry" />
        </mxCell>
        <mxCell id="Udrxpl8e12mHpJj6cbQr-10" value="" style="edgeStyle=none;curved=1;rounded=0;orthogonalLoop=1;jettySize=auto;html=1;fontSize=12;startSize=8;endSize=8;" edge="1" parent="1" source="Udrxpl8e12mHpJj6cbQr-7" target="Udrxpl8e12mHpJj6cbQr-9">
          <mxGeometry relative="1" as="geometry" />
        </mxCell>
        <mxCell id="Udrxpl8e12mHpJj6cbQr-7" value="sudo mariadb" style="rounded=1;whiteSpace=wrap;html=1;" vertex="1" parent="1">
          <mxGeometry x="3290" y="240" width="180" height="80" as="geometry" />
        </mxCell>
        <mxCell id="Udrxpl8e12mHpJj6cbQr-12" value="" style="edgeStyle=none;curved=1;rounded=0;orthogonalLoop=1;jettySize=auto;html=1;fontSize=12;startSize=8;endSize=8;" edge="1" parent="1" source="Udrxpl8e12mHpJj6cbQr-9" target="Udrxpl8e12mHpJj6cbQr-11">
          <mxGeometry relative="1" as="geometry" />
        </mxCell>
        <mxCell id="Udrxpl8e12mHpJj6cbQr-9" value="GRANT ALL ON *.* TO &#39;admin&#39;@&#39;localhost&#39; IDENTIFIED BY &#39;password&#39; WITH GRANT OPTION;" style="rounded=1;whiteSpace=wrap;html=1;" vertex="1" parent="1">
          <mxGeometry x="3290" y="40" width="180" height="80" as="geometry" />
        </mxCell>
        <mxCell id="Udrxpl8e12mHpJj6cbQr-11" value="FLUSH PRIVILEGES;" style="rounded=1;whiteSpace=wrap;html=1;" vertex="1" parent="1">
          <mxGeometry x="3290" y="-160" width="180" height="80" as="geometry" />
        </mxCell>
        <mxCell id="Udrxpl8e12mHpJj6cbQr-16" value="" style="edgeStyle=none;curved=1;rounded=0;orthogonalLoop=1;jettySize=auto;html=1;fontSize=12;startSize=8;endSize=8;" edge="1" parent="1" source="Udrxpl8e12mHpJj6cbQr-13" target="Udrxpl8e12mHpJj6cbQr-15">
          <mxGeometry relative="1" as="geometry" />
        </mxCell>
        <mxCell id="Udrxpl8e12mHpJj6cbQr-25" style="edgeStyle=none;curved=1;rounded=0;orthogonalLoop=1;jettySize=auto;html=1;exitX=1;exitY=0.5;exitDx=0;exitDy=0;fontSize=12;startSize=8;endSize=8;endArrow=none;endFill=0;" edge="1" parent="1" source="Udrxpl8e12mHpJj6cbQr-13">
          <mxGeometry relative="1" as="geometry">
            <mxPoint x="3880" y="680" as="targetPoint" />
          </mxGeometry>
        </mxCell>
        <mxCell id="Udrxpl8e12mHpJj6cbQr-13" value="Cài https" style="rounded=1;whiteSpace=wrap;html=1;" vertex="1" parent="1">
          <mxGeometry x="3590" y="640" width="180" height="80" as="geometry" />
        </mxCell>
        <mxCell id="Udrxpl8e12mHpJj6cbQr-18" value="" style="edgeStyle=none;curved=1;rounded=0;orthogonalLoop=1;jettySize=auto;html=1;fontSize=12;startSize=8;endSize=8;" edge="1" parent="1" source="Udrxpl8e12mHpJj6cbQr-15" target="Udrxpl8e12mHpJj6cbQr-17">
          <mxGeometry relative="1" as="geometry" />
        </mxCell>
        <mxCell id="Udrxpl8e12mHpJj6cbQr-19" value="Obtain an SSL Certificate" style="edgeLabel;html=1;align=center;verticalAlign=middle;resizable=0;points=[];fontSize=12;" vertex="1" connectable="0" parent="Udrxpl8e12mHpJj6cbQr-18">
          <mxGeometry x="-0.2061" relative="1" as="geometry">
            <mxPoint as="offset" />
          </mxGeometry>
        </mxCell>
        <mxCell id="Udrxpl8e12mHpJj6cbQr-15" value="sudo apt install certbot python3-certbot-nginx" style="rounded=1;whiteSpace=wrap;html=1;" vertex="1" parent="1">
          <mxGeometry x="3590" y="440" width="180" height="80" as="geometry" />
        </mxCell>
        <mxCell id="Udrxpl8e12mHpJj6cbQr-17" value="sudo certbot --nginx -d example.com -d www.example.com" style="rounded=1;whiteSpace=wrap;html=1;" vertex="1" parent="1">
          <mxGeometry x="3590" y="240" width="180" height="80" as="geometry" />
        </mxCell>
        <mxCell id="Udrxpl8e12mHpJj6cbQr-26" value="" style="endArrow=none;html=1;rounded=0;fontSize=12;startSize=8;endSize=8;curved=1;strokeColor=default;" edge="1" parent="1">
          <mxGeometry width="50" height="50" relative="1" as="geometry">
            <mxPoint x="3880" y="1030" as="sourcePoint" />
            <mxPoint x="3880" y="680" as="targetPoint" />
          </mxGeometry>
        </mxCell>
        <mxCell id="Udrxpl8e12mHpJj6cbQr-27" value="" style="endArrow=classic;html=1;rounded=0;fontSize=12;startSize=8;endSize=8;curved=1;entryX=0;entryY=0.5;entryDx=0;entryDy=0;" edge="1" parent="1" target="Udrxpl8e12mHpJj6cbQr-28">
          <mxGeometry width="50" height="50" relative="1" as="geometry">
            <mxPoint x="3880" y="850" as="sourcePoint" />
            <mxPoint x="3930" y="850" as="targetPoint" />
          </mxGeometry>
        </mxCell>
        <mxCell id="Udrxpl8e12mHpJj6cbQr-34" value="" style="edgeStyle=none;curved=1;rounded=0;orthogonalLoop=1;jettySize=auto;html=1;fontSize=12;startSize=8;endSize=8;" edge="1" parent="1" source="Udrxpl8e12mHpJj6cbQr-28" target="Udrxpl8e12mHpJj6cbQr-33">
          <mxGeometry relative="1" as="geometry" />
        </mxCell>
        <mxCell id="Udrxpl8e12mHpJj6cbQr-68" style="edgeStyle=none;curved=1;rounded=0;orthogonalLoop=1;jettySize=auto;html=1;exitX=1;exitY=0.5;exitDx=0;exitDy=0;entryX=0;entryY=0.5;entryDx=0;entryDy=0;fontSize=12;startSize=8;endSize=8;" edge="1" parent="1" source="Udrxpl8e12mHpJj6cbQr-28" target="Udrxpl8e12mHpJj6cbQr-30">
          <mxGeometry relative="1" as="geometry" />
        </mxCell>
        <mxCell id="Udrxpl8e12mHpJj6cbQr-28" value="Websocket - Soketi&lt;br&gt;(nên tạo user mới và dùng bản node riêng ở user đó để phù hợp với Soketi)" style="rounded=1;whiteSpace=wrap;html=1;" vertex="1" parent="1">
          <mxGeometry x="4000" y="810" width="180" height="80" as="geometry" />
        </mxCell>
        <mxCell id="Udrxpl8e12mHpJj6cbQr-29" value="" style="strokeWidth=2;html=1;shape=mxgraph.flowchart.annotation_2;align=left;labelPosition=right;pointerEvents=1;" vertex="1" parent="1">
          <mxGeometry x="4440" y="675" width="270" height="350" as="geometry" />
        </mxCell>
        <mxCell id="Udrxpl8e12mHpJj6cbQr-49" value="" style="edgeStyle=none;curved=1;rounded=0;orthogonalLoop=1;jettySize=auto;html=1;fontSize=12;startSize=8;endSize=8;" edge="1" parent="1" source="Udrxpl8e12mHpJj6cbQr-30" target="Udrxpl8e12mHpJj6cbQr-48">
          <mxGeometry relative="1" as="geometry" />
        </mxCell>
        <mxCell id="Udrxpl8e12mHpJj6cbQr-50" value="vào path config.json của soketi, thường ở ~/config.json" style="edgeLabel;html=1;align=center;verticalAlign=middle;resizable=0;points=[];fontSize=12;" vertex="1" connectable="0" parent="Udrxpl8e12mHpJj6cbQr-49">
          <mxGeometry x="0.2333" y="-1" relative="1" as="geometry">
            <mxPoint as="offset" />
          </mxGeometry>
        </mxCell>
        <mxCell id="Udrxpl8e12mHpJj6cbQr-30" value="Cấu hình config,json" style="rounded=1;whiteSpace=wrap;html=1;" vertex="1" parent="1">
          <mxGeometry x="4260" y="810" width="180" height="80" as="geometry" />
        </mxCell>
        <mxCell id="Udrxpl8e12mHpJj6cbQr-31" value="BE" style="text;html=1;align=center;verticalAlign=middle;resizable=0;points=[];autosize=1;strokeColor=none;fillColor=none;fontSize=16;" vertex="1" parent="1">
          <mxGeometry x="4664" y="640" width="40" height="30" as="geometry" />
        </mxCell>
        <mxCell id="Udrxpl8e12mHpJj6cbQr-32" value="FE" style="text;html=1;align=center;verticalAlign=middle;resizable=0;points=[];autosize=1;strokeColor=none;fillColor=none;fontSize=16;" vertex="1" parent="1">
          <mxGeometry x="4664" y="1020" width="40" height="30" as="geometry" />
        </mxCell>
        <mxCell id="Udrxpl8e12mHpJj6cbQr-36" value="" style="edgeStyle=none;curved=1;rounded=0;orthogonalLoop=1;jettySize=auto;html=1;fontSize=12;startSize=8;endSize=8;" edge="1" parent="1" source="Udrxpl8e12mHpJj6cbQr-33" target="Udrxpl8e12mHpJj6cbQr-35">
          <mxGeometry relative="1" as="geometry" />
        </mxCell>
        <mxCell id="Udrxpl8e12mHpJj6cbQr-33" value="sudo apt install -y git python3 gcc build-essential" style="rounded=1;whiteSpace=wrap;html=1;" vertex="1" parent="1">
          <mxGeometry x="4000" y="1010" width="180" height="80" as="geometry" />
        </mxCell>
        <mxCell id="Udrxpl8e12mHpJj6cbQr-38" value="" style="edgeStyle=none;curved=1;rounded=0;orthogonalLoop=1;jettySize=auto;html=1;fontSize=12;startSize=8;endSize=8;" edge="1" parent="1" source="Udrxpl8e12mHpJj6cbQr-35" target="Udrxpl8e12mHpJj6cbQr-37">
          <mxGeometry relative="1" as="geometry" />
        </mxCell>
        <mxCell id="Udrxpl8e12mHpJj6cbQr-39" value="Cài nvm (node version management) nếu version hiện tại&amp;nbsp;&lt;br&gt;không dùng được với soketi" style="edgeLabel;html=1;align=center;verticalAlign=middle;resizable=0;points=[];fontSize=12;" vertex="1" connectable="0" parent="Udrxpl8e12mHpJj6cbQr-38">
          <mxGeometry x="-0.3542" y="2" relative="1" as="geometry">
            <mxPoint as="offset" />
          </mxGeometry>
        </mxCell>
        <mxCell id="Udrxpl8e12mHpJj6cbQr-35" value="sudo npm install -g @soketi/soketi" style="rounded=1;whiteSpace=wrap;html=1;" vertex="1" parent="1">
          <mxGeometry x="4000" y="1210" width="180" height="80" as="geometry" />
        </mxCell>
        <mxCell id="Udrxpl8e12mHpJj6cbQr-41" value="" style="edgeStyle=none;curved=1;rounded=0;orthogonalLoop=1;jettySize=auto;html=1;fontSize=12;startSize=8;endSize=8;" edge="1" parent="1" source="Udrxpl8e12mHpJj6cbQr-37" target="Udrxpl8e12mHpJj6cbQr-40">
          <mxGeometry relative="1" as="geometry" />
        </mxCell>
        <mxCell id="Udrxpl8e12mHpJj6cbQr-37" value="curl -o- https://raw.githubusercontent.com/nvm-sh/nvm/v0.40.3/install.sh | bash" style="rounded=1;whiteSpace=wrap;html=1;" vertex="1" parent="1">
          <mxGeometry x="4000" y="1410" width="180" height="80" as="geometry" />
        </mxCell>
        <mxCell id="Udrxpl8e12mHpJj6cbQr-43" value="" style="edgeStyle=none;curved=1;rounded=0;orthogonalLoop=1;jettySize=auto;html=1;fontSize=12;startSize=8;endSize=8;" edge="1" parent="1" source="Udrxpl8e12mHpJj6cbQr-40" target="Udrxpl8e12mHpJj6cbQr-42">
          <mxGeometry relative="1" as="geometry" />
        </mxCell>
        <mxCell id="Udrxpl8e12mHpJj6cbQr-40" value="Chạy dòng lệnh export được yêu cầu&amp;nbsp;" style="rounded=1;whiteSpace=wrap;html=1;" vertex="1" parent="1">
          <mxGeometry x="4000" y="1610" width="180" height="80" as="geometry" />
        </mxCell>
        <mxCell id="Udrxpl8e12mHpJj6cbQr-45" value="" style="edgeStyle=none;curved=1;rounded=0;orthogonalLoop=1;jettySize=auto;html=1;fontSize=12;startSize=8;endSize=8;" edge="1" parent="1" source="Udrxpl8e12mHpJj6cbQr-42" target="Udrxpl8e12mHpJj6cbQr-44">
          <mxGeometry relative="1" as="geometry" />
        </mxCell>
        <mxCell id="Udrxpl8e12mHpJj6cbQr-42" value="nvm install 18&lt;br&gt;(node -v để check)" style="rounded=1;whiteSpace=wrap;html=1;" vertex="1" parent="1">
          <mxGeometry x="4000" y="1810" width="180" height="80" as="geometry" />
        </mxCell>
        <mxCell id="Udrxpl8e12mHpJj6cbQr-44" value="soketi start" style="rounded=1;whiteSpace=wrap;html=1;" vertex="1" parent="1">
          <mxGeometry x="4000" y="2010" width="180" height="80" as="geometry" />
        </mxCell>
        <mxCell id="Udrxpl8e12mHpJj6cbQr-52" value="" style="edgeStyle=none;curved=1;rounded=0;orthogonalLoop=1;jettySize=auto;html=1;fontSize=12;startSize=8;endSize=8;" edge="1" parent="1" source="Udrxpl8e12mHpJj6cbQr-48" target="Udrxpl8e12mHpJj6cbQr-51">
          <mxGeometry relative="1" as="geometry" />
        </mxCell>
        <mxCell id="Udrxpl8e12mHpJj6cbQr-48" value="Config (https://github.com/MikMiik/Note/blob/main/soketi-server-config.config)" style="rounded=1;whiteSpace=wrap;html=1;" vertex="1" parent="1">
          <mxGeometry x="4260" y="1020" width="180" height="80" as="geometry" />
        </mxCell>
        <mxCell id="Udrxpl8e12mHpJj6cbQr-54" value="" style="edgeStyle=none;curved=1;rounded=0;orthogonalLoop=1;jettySize=auto;html=1;fontSize=12;startSize=8;endSize=8;" edge="1" parent="1" source="Udrxpl8e12mHpJj6cbQr-51" target="Udrxpl8e12mHpJj6cbQr-53">
          <mxGeometry relative="1" as="geometry" />
        </mxCell>
        <mxCell id="Udrxpl8e12mHpJj6cbQr-51" value="Chỉnh cổng 6001 thông dụng hơn, nếu cần websocket cho nhiều app thì thêm object vào config" style="rounded=1;whiteSpace=wrap;html=1;" vertex="1" parent="1">
          <mxGeometry x="4260" y="1210" width="180" height="80" as="geometry" />
        </mxCell>
        <mxCell id="Udrxpl8e12mHpJj6cbQr-69" style="edgeStyle=none;curved=1;rounded=0;orthogonalLoop=1;jettySize=auto;html=1;exitX=0.5;exitY=1;exitDx=0;exitDy=0;entryX=0.5;entryY=0;entryDx=0;entryDy=0;fontSize=12;startSize=8;endSize=8;" edge="1" parent="1" source="Udrxpl8e12mHpJj6cbQr-53" target="Udrxpl8e12mHpJj6cbQr-55">
          <mxGeometry relative="1" as="geometry" />
        </mxCell>
        <mxCell id="Udrxpl8e12mHpJj6cbQr-53" value="Xóa 2 dòng trong webhooks, lưu file config và thoát" style="rounded=1;whiteSpace=wrap;html=1;" vertex="1" parent="1">
          <mxGeometry x="4260" y="1410" width="180" height="80" as="geometry" />
        </mxCell>
        <mxCell id="Udrxpl8e12mHpJj6cbQr-55" value="pm2 start soketi -- start --config=/home/(username)/config.json" style="rounded=1;whiteSpace=wrap;html=1;" vertex="1" parent="1">
          <mxGeometry x="4260" y="1610" width="180" height="80" as="geometry" />
        </mxCell>
        <mxCell id="Udrxpl8e12mHpJj6cbQr-59" value="" style="edgeStyle=none;curved=1;rounded=0;orthogonalLoop=1;jettySize=auto;html=1;fontSize=12;startSize=8;endSize=8;" edge="1" parent="1" source="Udrxpl8e12mHpJj6cbQr-57" target="Udrxpl8e12mHpJj6cbQr-58">
          <mxGeometry relative="1" as="geometry" />
        </mxCell>
        <mxCell id="Udrxpl8e12mHpJj6cbQr-57" value="Tạo utils/socketClient.js" style="rounded=1;whiteSpace=wrap;html=1;" vertex="1" parent="1">
          <mxGeometry x="5010" y="1200" width="180" height="80" as="geometry" />
        </mxCell>
        <mxCell id="Udrxpl8e12mHpJj6cbQr-58" value="Config&amp;nbsp;&lt;br&gt;(https://github.com/MikMiik/Note/blob/main/soketi-client.config)" style="rounded=1;whiteSpace=wrap;html=1;" vertex="1" parent="1">
          <mxGeometry x="5010" y="1400" width="180" height="80" as="geometry" />
        </mxCell>
        <mxCell id="Udrxpl8e12mHpJj6cbQr-63" value="" style="edgeStyle=none;curved=1;rounded=0;orthogonalLoop=1;jettySize=auto;html=1;fontSize=12;startSize=8;endSize=8;" edge="1" parent="1" source="Udrxpl8e12mHpJj6cbQr-61" target="Udrxpl8e12mHpJj6cbQr-62">
          <mxGeometry relative="1" as="geometry" />
        </mxCell>
        <mxCell id="Udrxpl8e12mHpJj6cbQr-61" value="npm i pusher-js" style="rounded=1;whiteSpace=wrap;html=1;" vertex="1" parent="1">
          <mxGeometry x="4710" y="980" width="180" height="80" as="geometry" />
        </mxCell>
        <mxCell id="Udrxpl8e12mHpJj6cbQr-64" style="edgeStyle=none;curved=1;rounded=0;orthogonalLoop=1;jettySize=auto;html=1;exitX=0.5;exitY=1;exitDx=0;exitDy=0;entryX=0.5;entryY=0;entryDx=0;entryDy=0;fontSize=12;startSize=8;endSize=8;" edge="1" parent="1" source="Udrxpl8e12mHpJj6cbQr-62" target="Udrxpl8e12mHpJj6cbQr-57">
          <mxGeometry relative="1" as="geometry" />
        </mxCell>
        <mxCell id="Udrxpl8e12mHpJj6cbQr-66" value="" style="edgeStyle=none;curved=1;rounded=0;orthogonalLoop=1;jettySize=auto;html=1;fontSize=12;startSize=8;endSize=8;" edge="1" parent="1" source="Udrxpl8e12mHpJj6cbQr-62" target="Udrxpl8e12mHpJj6cbQr-65">
          <mxGeometry relative="1" as="geometry" />
        </mxCell>
        <mxCell id="Udrxpl8e12mHpJj6cbQr-67" value="dùng trong useEffect của component" style="edgeLabel;html=1;align=center;verticalAlign=middle;resizable=0;points=[];fontSize=12;" vertex="1" connectable="0" parent="Udrxpl8e12mHpJj6cbQr-66">
          <mxGeometry x="-0.0333" y="5" relative="1" as="geometry">
            <mxPoint as="offset" />
          </mxGeometry>
        </mxCell>
        <mxCell id="Udrxpl8e12mHpJj6cbQr-62" value="Tạo file cấu hình soketi" style="rounded=1;whiteSpace=wrap;html=1;" vertex="1" parent="1">
          <mxGeometry x="5010" y="980" width="180" height="80" as="geometry" />
        </mxCell>
        <mxCell id="Udrxpl8e12mHpJj6cbQr-80" value="" style="edgeStyle=none;curved=1;rounded=0;orthogonalLoop=1;jettySize=auto;html=1;fontSize=12;startSize=8;endSize=8;" edge="1" parent="1" source="Udrxpl8e12mHpJj6cbQr-65" target="Udrxpl8e12mHpJj6cbQr-79">
          <mxGeometry relative="1" as="geometry" />
        </mxCell>
        <mxCell id="Udrxpl8e12mHpJj6cbQr-65" value="const channel = socketClient.subscribe(&#39;my-channel&#39;)&lt;br&gt;return channel.unsubscribe()&amp;nbsp;" style="rounded=1;whiteSpace=wrap;html=1;" vertex="1" parent="1">
          <mxGeometry x="5470" y="980" width="180" height="80" as="geometry" />
        </mxCell>
        <mxCell id="Udrxpl8e12mHpJj6cbQr-72" value="" style="edgeStyle=none;curved=1;rounded=0;orthogonalLoop=1;jettySize=auto;html=1;fontSize=12;startSize=8;endSize=8;" edge="1" parent="1" source="Udrxpl8e12mHpJj6cbQr-70" target="Udrxpl8e12mHpJj6cbQr-71">
          <mxGeometry relative="1" as="geometry" />
        </mxCell>
        <mxCell id="Udrxpl8e12mHpJj6cbQr-70" value="npm i pusher" style="rounded=1;whiteSpace=wrap;html=1;" vertex="1" parent="1">
          <mxGeometry x="4710" y="640" width="180" height="80" as="geometry" />
        </mxCell>
        <mxCell id="Udrxpl8e12mHpJj6cbQr-74" value="" style="edgeStyle=none;curved=1;rounded=0;orthogonalLoop=1;jettySize=auto;html=1;fontSize=12;startSize=8;endSize=8;" edge="1" parent="1" source="Udrxpl8e12mHpJj6cbQr-71" target="Udrxpl8e12mHpJj6cbQr-73">
          <mxGeometry relative="1" as="geometry" />
        </mxCell>
        <mxCell id="Udrxpl8e12mHpJj6cbQr-78" value="" style="edgeStyle=none;curved=1;rounded=0;orthogonalLoop=1;jettySize=auto;html=1;fontSize=12;startSize=8;endSize=8;" edge="1" parent="1" source="Udrxpl8e12mHpJj6cbQr-71" target="Udrxpl8e12mHpJj6cbQr-77">
          <mxGeometry relative="1" as="geometry" />
        </mxCell>
        <mxCell id="Udrxpl8e12mHpJj6cbQr-71" value="Tạo file cấu hình soketi" style="rounded=1;whiteSpace=wrap;html=1;" vertex="1" parent="1">
          <mxGeometry x="5010" y="640" width="180" height="80" as="geometry" />
        </mxCell>
        <mxCell id="Udrxpl8e12mHpJj6cbQr-76" value="" style="edgeStyle=none;curved=1;rounded=0;orthogonalLoop=1;jettySize=auto;html=1;fontSize=12;startSize=8;endSize=8;" edge="1" parent="1" source="Udrxpl8e12mHpJj6cbQr-73" target="Udrxpl8e12mHpJj6cbQr-75">
          <mxGeometry relative="1" as="geometry" />
        </mxCell>
        <mxCell id="Udrxpl8e12mHpJj6cbQr-73" value="Tạo utils/pusher.js" style="rounded=1;whiteSpace=wrap;html=1;" vertex="1" parent="1">
          <mxGeometry x="5010" y="440" width="180" height="80" as="geometry" />
        </mxCell>
        <mxCell id="Udrxpl8e12mHpJj6cbQr-75" value="Config (https://github.com/MikMiik/Note/blob/main/soketi-backend.config)" style="rounded=1;whiteSpace=wrap;html=1;" vertex="1" parent="1">
          <mxGeometry x="5010" y="240" width="180" height="80" as="geometry" />
        </mxCell>
        <mxCell id="Udrxpl8e12mHpJj6cbQr-77" value="pusher.trigger(&quot;channel&quot;, &quot;event&quot;, &quot;data&quot;)" style="rounded=1;whiteSpace=wrap;html=1;" vertex="1" parent="1">
          <mxGeometry x="5310" y="640" width="180" height="80" as="geometry" />
        </mxCell>
        <mxCell id="Udrxpl8e12mHpJj6cbQr-79" value="bind()&lt;br&gt;unbind()&lt;br&gt;nếu cần" style="rounded=1;whiteSpace=wrap;html=1;" vertex="1" parent="1">
          <mxGeometry x="5470" y="1180" width="180" height="80" as="geometry" />
        </mxCell>
      </root>
    </mxGraphModel>
  </diagram>
</mxfile>
